<svg width="694" height="82" viewBox="0 0 694 82" fill="none" xmlns="http://www.w3.org/2000/svg">
<path d="M165.26 65V16.2727H177.037V35.8303H196.238V16.2727H207.992V65H196.238V45.4187H177.037V65H165.26ZM215.379 65V28.4545H227.014V65H215.379ZM221.208 24.1957C219.575 24.1957 218.171 23.6564 216.997 22.5778C215.823 21.4833 215.237 20.1668 215.237 18.6282C215.237 17.1055 215.823 15.8048 216.997 14.7262C218.171 13.6317 219.575 13.0845 221.208 13.0845C222.858 13.0845 224.262 13.6317 225.42 14.7262C226.594 15.8048 227.18 17.1055 227.18 18.6282C227.18 20.1668 226.594 21.4833 225.42 22.5778C224.262 23.6564 222.858 24.1957 221.208 24.1957ZM255.047 28.4545V37.0199H231.992V28.4545H255.047ZM236.822 19.6989H248.457V53.5082C248.457 54.2219 248.568 54.8009 248.79 55.245C249.028 55.6733 249.369 55.9826 249.813 56.1729C250.257 56.3474 250.789 56.4347 251.407 56.4347C251.851 56.4347 252.319 56.395 252.811 56.3157C253.319 56.2205 253.699 56.1412 253.953 56.0778L255.714 64.4766C255.159 64.6352 254.373 64.8335 253.358 65.0714C252.359 65.3093 251.161 65.46 249.766 65.5234C247.037 65.6503 244.698 65.3331 242.747 64.5717C240.812 63.7945 239.329 62.589 238.297 60.9553C237.282 59.3215 236.791 57.2674 236.822 54.793V19.6989ZM277.65 65.69C273.796 65.69 270.489 64.8969 267.729 63.3107C264.985 61.7246 262.875 59.5198 261.4 56.6964C259.925 53.8571 259.187 50.5737 259.187 46.8462C259.187 43.1029 259.925 39.8195 261.4 36.9961C262.891 34.1568 265.009 31.9441 267.753 30.358C270.513 28.7718 273.804 27.9787 277.627 27.9787C281.005 27.9787 283.948 28.5894 286.454 29.8107C288.976 31.0321 290.943 32.761 292.354 34.9975C293.782 37.2182 294.535 39.8274 294.615 42.8253H283.741C283.519 40.9536 282.885 39.4864 281.838 38.4237C280.807 37.3609 279.459 36.8295 277.793 36.8295C276.445 36.8295 275.263 37.2102 274.248 37.9716C273.233 38.7171 272.44 39.8274 271.869 41.3026C271.314 42.7618 271.036 44.5701 271.036 46.7273C271.036 48.8845 271.314 50.7086 271.869 52.1996C272.44 53.6747 273.233 54.793 274.248 55.5543C275.263 56.2998 276.445 56.6726 277.793 56.6726C278.872 56.6726 279.824 56.4426 280.648 55.9826C281.489 55.5226 282.179 54.8485 282.718 53.9602C283.258 53.0561 283.599 51.9616 283.741 50.6768H294.615C294.504 53.6906 293.75 56.3236 292.354 58.576C290.974 60.8284 289.031 62.5811 286.525 63.8342C284.035 65.0714 281.077 65.69 277.65 65.69ZM312.203 44.1577V65H300.569V16.2727H311.823V35.1641H312.227C313.052 32.9117 314.4 31.151 316.272 29.8821C318.159 28.6132 320.467 27.9787 323.195 27.9787C325.765 27.9787 328.002 28.5497 329.905 29.6918C331.808 30.8179 333.284 32.4121 334.33 34.4741C335.393 36.5361 335.917 38.9471 335.901 41.707V65H324.266V43.9911C324.282 41.9608 323.774 40.3746 322.743 39.2326C321.712 38.0906 320.261 37.5195 318.389 37.5195C317.168 37.5195 316.089 37.7892 315.154 38.3285C314.234 38.8519 313.512 39.6053 312.988 40.5888C312.481 41.5722 312.219 42.7618 312.203 44.1577ZM403.549 40.6364C403.549 45.9976 402.518 50.542 400.456 54.2695C398.394 57.997 395.602 60.8284 392.081 62.7635C388.576 64.6986 384.642 65.6662 380.28 65.6662C375.902 65.6662 371.96 64.6907 368.455 62.7397C364.95 60.7887 362.166 57.9574 360.104 54.2457C358.058 50.5182 357.035 45.9818 357.035 40.6364C357.035 35.2751 358.058 30.7307 360.104 27.0032C362.166 23.2757 364.95 20.4444 368.455 18.5092C371.96 16.5741 375.902 15.6065 380.28 15.6065C384.642 15.6065 388.576 16.5741 392.081 18.5092C395.602 20.4444 398.394 23.2757 400.456 27.0032C402.518 30.7307 403.549 35.2751 403.549 40.6364ZM391.51 40.6364C391.51 37.464 391.058 34.7834 390.154 32.5945C389.266 30.4055 387.981 28.748 386.299 27.6218C384.634 26.4956 382.627 25.9325 380.28 25.9325C377.948 25.9325 375.942 26.4956 374.26 27.6218C372.579 28.748 371.286 30.4055 370.382 32.5945C369.494 34.7834 369.05 37.464 369.05 40.6364C369.05 43.8087 369.494 46.4893 370.382 48.6783C371.286 50.8672 372.579 52.5247 374.26 53.6509C375.942 54.7771 377.948 55.3402 380.28 55.3402C382.627 55.3402 384.634 54.7771 386.299 53.6509C387.981 52.5247 389.266 50.8672 390.154 48.6783C391.058 46.4893 391.51 43.8087 391.51 40.6364ZM410.425 78.7045V28.4545H421.941V34.712H422.298C422.774 33.6017 423.448 32.531 424.32 31.5C425.208 30.469 426.334 29.6283 427.699 28.978C429.079 28.3118 430.728 27.9787 432.647 27.9787C435.185 27.9787 437.557 28.6449 439.761 29.9773C441.982 31.3097 443.774 33.3638 445.139 36.1396C446.503 38.9154 447.185 42.4525 447.185 46.7511C447.185 50.891 446.526 54.3568 445.21 57.1484C443.909 59.9401 442.149 62.0339 439.928 63.4297C437.723 64.8255 435.273 65.5234 432.576 65.5234C430.736 65.5234 429.142 65.2221 427.794 64.6193C426.446 64.0166 425.311 63.2235 424.391 62.2401C423.487 61.2566 422.789 60.2018 422.298 59.0756H422.06V78.7045H410.425ZM421.822 46.7273C421.822 48.6941 422.084 50.4072 422.607 51.8665C423.146 53.3258 423.916 54.4599 424.915 55.2688C425.93 56.0619 427.143 56.4585 428.555 56.4585C429.983 56.4585 431.196 56.0619 432.195 55.2688C433.195 54.4599 433.948 53.3258 434.456 51.8665C434.979 50.4072 435.241 48.6941 435.241 46.7273C435.241 44.7604 434.979 43.0553 434.456 41.6119C433.948 40.1684 433.195 39.0502 432.195 38.2571C431.212 37.464 429.999 37.0675 428.555 37.0675C427.128 37.0675 425.914 37.4561 424.915 38.2333C423.916 39.0105 423.146 40.1209 422.607 41.5643C422.084 43.0077 421.822 44.7287 421.822 46.7273ZM470.365 65.69C466.542 65.69 463.243 64.9366 460.467 63.4297C457.707 61.907 455.582 59.7418 454.091 56.9343C452.615 54.1109 451.878 50.7562 451.878 46.87C451.878 43.0949 452.623 39.7957 454.114 36.9723C455.605 34.133 457.707 31.9283 460.419 30.358C463.132 28.7718 466.328 27.9787 470.008 27.9787C472.609 27.9787 474.988 28.3832 477.146 29.1921C479.303 30.0011 481.167 31.1986 482.737 32.7848C484.307 34.371 485.529 36.3299 486.401 38.6616C487.273 40.9774 487.71 43.6342 487.71 46.6321V49.5348H455.946V42.7777H476.884C476.868 41.5405 476.575 40.4381 476.004 39.4705C475.433 38.503 474.647 37.7495 473.648 37.2102C472.665 36.6551 471.531 36.3775 470.246 36.3775C468.945 36.3775 467.779 36.6709 466.748 37.2578C465.717 37.8288 464.9 38.614 464.298 39.6133C463.695 40.5967 463.378 41.715 463.346 42.968V49.8441C463.346 51.3351 463.639 52.6437 464.226 53.7699C464.813 54.8802 465.646 55.7447 466.724 56.3633C467.803 56.9819 469.088 57.2912 470.579 57.2912C471.61 57.2912 472.546 57.1484 473.386 56.8629C474.227 56.5774 474.949 56.1571 475.551 55.6019C476.154 55.0468 476.606 54.3647 476.908 53.5558L487.591 53.8651C487.146 56.2602 486.171 58.346 484.664 60.1225C483.173 61.8832 481.214 63.2552 478.787 64.2386C476.36 65.2062 473.553 65.69 470.365 65.69ZM505.286 44.1577V65H493.652V28.4545H504.715V35.1641H505.12C505.929 32.9276 507.309 31.1748 509.26 29.9059C511.211 28.6211 513.534 27.9787 516.231 27.9787C518.801 27.9787 521.029 28.5576 522.917 29.7156C524.82 30.8576 526.295 32.4596 527.342 34.5217C528.405 36.5678 528.928 38.9629 528.912 41.707V65H517.278V43.9911C517.294 41.9608 516.778 40.3746 515.731 39.2326C514.7 38.0906 513.265 37.5195 511.425 37.5195C510.203 37.5195 509.125 37.7892 508.189 38.3285C507.269 38.8519 506.555 39.6053 506.048 40.5888C505.556 41.5722 505.302 42.7618 505.286 44.1577Z" fill="white"/>
<path d="M530.795 12.6634V10.4545H542.401V12.6634H537.905V25H535.291V12.6634H530.795ZM544.638 10.4545H547.862L552.18 20.9943H552.351L556.669 10.4545H559.893V25H557.365V15.0071H557.23L553.21 24.9574H551.321L547.301 14.9858H547.166V25H544.638V10.4545Z" fill="white"/>
</svg>
